<svg width="626" height="271" viewBox="0 0 626 271" fill="none" xmlns="http://www.w3.org/2000/svg">
<path d="M625.042 0C509.695 102.615 546.218 110.792 369.747 105.091C158.771 75.5503 212.029 179.426 109.703 224.079C66.9924 242.717 55.2087 259.071 0 270.991V0H625.042Z" fill="#F97D7D"/>
<path d="M520.936 0C424.945 57.9803 455.339 76.1357 308.482 72.9146C132.909 56.2233 180.839 119.584 100.092 152.271C61.1551 168.033 46.7254 186.901 0.781097 193.636V0H520.936Z" fill="#53C4C7"/>
<path d="M327.033 0C266.792 50.7419 285.866 54.7853 193.703 51.9663C83.518 37.3588 118.335 105.597 62.9228 121.416C39.0764 128.224 29.4317 127.367 0.598328 133.262V0H327.033Z" fill="#FFB449"/>
</svg>
