<svg width="626" height="271" viewBox="0 0 626 271" fill="none" xmlns="http://www.w3.org/2000/svg">
<path d="M0 271C115.347 168.385 78.8241 160.208 255.295 165.909C466.271 195.45 413.013 91.5737 515.339 46.9212C558.05 28.2831 569.833 11.9293 625.042 0.0093689V271H0Z" fill="#F97D7D"/>
<path d="M104.106 271C200.097 213.02 169.703 194.864 316.561 198.085C492.133 214.777 444.204 151.416 524.951 118.729C563.887 102.967 578.317 84.0991 624.261 77.364V271H104.106Z" fill="#53C4C7"/>
<path d="M298.009 271C358.25 220.258 339.176 216.215 431.34 219.034C541.524 233.641 506.708 165.403 562.12 149.584C585.966 142.776 595.611 143.633 624.444 137.738V271H298.009Z" fill="#FFB449"/>
</svg>
